<svg width="32" height="32" viewBox="0 0 32 32" fill="none" xmlns="http://www.w3.org/2000/svg">
<path d="M7.48706 25.73H24.347C25.2723 25.7289 26.1594 25.3609 26.8137 24.7066C27.468 24.0524 27.836 23.1653 27.837 22.24V21.73C27.837 21.4648 27.7317 21.2104 27.5442 21.0229C27.3567 20.8354 27.1023 20.73 26.837 20.73H26.7371V9C26.7347 8.20508 26.4178 7.4434 25.8557 6.8813C25.2936 6.31921 24.532 6.00237 23.7371 6H8.10706C7.31214 6.00237 6.5505 6.31921 5.9884 6.8813C5.42631 7.4434 5.10943 8.20508 5.10706 9V20.73H5C4.73478 20.73 4.48051 20.8354 4.29297 21.0229C4.10543 21.2104 4 21.4648 4 21.73V22.24C4.00106 23.1648 4.36871 24.0514 5.02234 24.7056C5.67596 25.3598 6.5623 25.7281 7.48706 25.73ZM9.104 10.724C9.104 10.6296 9.12268 10.5361 9.15881 10.4489C9.19495 10.3616 9.24793 10.2824 9.3147 10.2156C9.38146 10.1488 9.46062 10.0959 9.54785 10.0597C9.63508 10.0236 9.72858 10.005 9.823 10.005H22.01C22.1044 10.005 22.1979 10.0236 22.2852 10.0597C22.3724 10.0959 22.4517 10.1488 22.5184 10.2156C22.5852 10.2824 22.6382 10.3616 22.6743 10.4489C22.7104 10.5361 22.729 10.6296 22.729 10.724V18.015C22.729 18.2057 22.6533 18.3886 22.5184 18.5234C22.3836 18.6582 22.2007 18.734 22.01 18.734H9.823C9.63231 18.734 9.44954 18.6582 9.3147 18.5234C9.17986 18.3886 9.104 18.2057 9.104 18.015V10.724Z" fill="#0060BE"/>
</svg>
