<svg width="32" height="32" viewBox="0 0 32 32" fill="none" xmlns="http://www.w3.org/2000/svg">
<path d="M12.2461 20.47C12.2471 21.0139 12.0867 21.546 11.7853 21.9988C11.4839 22.4516 11.055 22.8048 10.5528 23.0139C10.0507 23.2229 9.49777 23.2783 8.9641 23.1731C8.43044 23.0678 7.93999 22.8067 7.55474 22.4227C7.16949 22.0387 6.90676 21.5491 6.7998 21.0158C6.69283 20.4825 6.74641 19.9294 6.95379 19.4266C7.16117 18.9237 7.51302 18.4936 7.96484 18.1908C8.41665 17.8879 8.94812 17.7258 9.49206 17.725C10.2211 17.7245 10.9206 18.0132 11.4369 18.5279C11.9532 19.0425 12.2442 19.741 12.2461 20.47Z" fill="#0060BE"/>
<path d="M25.2618 20.47C25.2618 21.0139 25.1004 21.5456 24.7983 21.9978C24.4961 22.4501 24.0666 22.8025 23.5641 23.0107C23.0616 23.2188 22.5087 23.2733 21.9753 23.1672C21.4418 23.0611 20.9518 22.7991 20.5672 22.4145C20.1826 22.03 19.9207 21.5399 19.8146 21.0065C19.7085 20.4731 19.7629 19.9201 19.9711 19.4176C20.1792 18.9151 20.5317 18.4856 20.9839 18.1835C21.4362 17.8813 21.9679 17.72 22.5118 17.72C23.2408 17.7211 23.9396 18.0111 24.4551 18.5266C24.9706 19.0421 25.2607 19.741 25.2618 20.47Z" fill="#0060BE"/>
<path d="M14.6297 27.66C14.4907 27.8173 14.3198 27.9432 14.1285 28.0294C13.9371 28.1156 13.7296 28.1601 13.5197 28.16H5.46964C5.25975 28.1601 5.05225 28.1156 4.86087 28.0294C4.6695 27.9432 4.49864 27.8173 4.35965 27.66C4.22612 27.5082 4.12594 27.3301 4.06565 27.1372C4.00535 26.9442 3.98632 26.7408 4.00968 26.54C4.11044 25.7546 4.37862 25 4.79612 24.3272C5.21361 23.6544 5.77067 23.079 6.42966 22.64C6.77638 23.1293 7.23553 23.5282 7.76847 23.8032C8.30141 24.0782 8.89252 24.2212 9.49222 24.2202C10.0919 24.2193 10.6827 24.0743 11.2147 23.7976C11.7467 23.5209 12.2045 23.1204 12.5497 22.63C13.2126 23.0681 13.773 23.6443 14.1924 24.3192C14.6118 24.9941 14.8804 25.7516 14.9796 26.54C15.0029 26.7408 14.9838 26.9442 14.9236 27.1372C14.8633 27.3301 14.7632 27.5082 14.6297 27.66Z" fill="#0060BE"/>
<path d="M27.6395 27.66C27.5005 27.8173 27.3296 27.9432 27.1383 28.0294C26.9469 28.1156 26.7393 28.1601 26.5294 28.16H18.4774C18.2675 28.1601 18.0601 28.1156 17.8687 28.0294C17.6773 27.9432 17.5064 27.8173 17.3675 27.66C17.2339 27.5082 17.1338 27.3301 17.0735 27.1372C17.0132 26.9442 16.9941 26.7408 17.0175 26.54C17.1167 25.7516 17.3852 24.994 17.8046 24.3191C18.2241 23.6442 18.7845 23.068 19.4475 22.63C19.7926 23.1204 20.2504 23.5209 20.7824 23.7976C21.3145 24.0743 21.9051 24.2193 22.5048 24.2202C23.1045 24.2212 23.6957 24.0782 24.2287 23.8032C24.7616 23.5282 25.2207 23.1293 25.5675 22.64C26.2265 23.079 26.7835 23.6544 27.201 24.3272C27.6185 25 27.8867 25.7546 27.9875 26.54C28.011 26.7407 27.9922 26.944 27.9323 27.1369C27.8723 27.3299 27.7726 27.5081 27.6395 27.66Z" fill="#0060BE"/>
<path d="M23.7566 4H8.25659C7.85861 3.99974 7.46448 4.07793 7.09674 4.23011C6.72901 4.38229 6.39488 4.60547 6.11347 4.88688C5.83205 5.1683 5.60884 5.50242 5.45667 5.87016C5.30449 6.2379 5.2263 6.63202 5.22656 7.03V10.47C5.2263 10.868 5.30449 11.2621 5.45667 11.6298C5.60884 11.9976 5.83205 12.3317 6.11347 12.6131C6.39488 12.8945 6.72901 13.1177 7.09674 13.2699C7.46448 13.4221 7.85861 13.5003 8.25659 13.5H8.4566C8.47736 13.5014 8.49689 13.5103 8.5116 13.525C8.52631 13.5397 8.53516 13.5592 8.53656 13.58V15.13C8.53527 15.3206 8.58888 15.5075 8.69092 15.6684C8.79296 15.8294 8.93916 15.9576 9.11206 16.0377C9.28497 16.1178 9.47725 16.1465 9.66602 16.1203C9.85478 16.0941 10.032 16.0142 10.1766 15.89L12.7566 13.69C12.9032 13.5692 13.0866 13.5021 13.2766 13.5H18.9166C19.1065 13.5021 19.29 13.5692 19.4366 13.69L22.0266 15.89C22.1718 16.0149 22.3499 16.0954 22.5396 16.122C22.7292 16.1485 22.9226 16.1201 23.0966 16.04C23.2689 15.9581 23.4148 15.8293 23.5174 15.6684C23.62 15.5074 23.6751 15.3208 23.6766 15.13V13.58C23.6764 13.5695 23.6784 13.559 23.6824 13.5492C23.6863 13.5395 23.6923 13.5306 23.6997 13.5231C23.7072 13.5157 23.7161 13.5098 23.7258 13.5058C23.7356 13.5018 23.746 13.4999 23.7566 13.5C24.5599 13.4989 25.3299 13.1794 25.8979 12.6114C26.466 12.0434 26.7855 11.2733 26.7866 10.47V7.03C26.7855 6.22672 26.466 5.45664 25.8979 4.88864C25.3299 4.32063 24.5599 4.00106 23.7566 4ZM18.9366 9.71H13.0566C12.7914 9.71 12.537 9.60465 12.3495 9.41711C12.162 9.22957 12.0566 8.97522 12.0566 8.71C12.0566 8.44479 12.162 8.19043 12.3495 8.00289C12.537 7.81536 12.7914 7.71 13.0566 7.71H18.9366C19.2018 7.71 19.4561 7.81536 19.6437 8.00289C19.8312 8.19043 19.9366 8.44479 19.9366 8.71C19.9366 8.97522 19.8312 9.22957 19.6437 9.41711C19.4561 9.60465 19.2018 9.71 18.9366 9.71Z" fill="#0060BE"/>
</svg>
